<svg xmlns="http://www.w3.org/2000/svg" width="200" height="31"><path d="M23.42 22.845c0-3.91-2.469-6.43-7.139-7.288l-.489-.09.479-.133c4.822-1.343 5.834-4.577 5.834-7.054 0-4.312-3.28-6.5-9.749-6.5H9.069c-.822 0-1.719.009-2.626.019-.93.011-1.87.021-2.75.021H0a18.226 18.226 0 011.524 8.192v12.2A18.238 18.238 0 010 30.407h12.82c6.935 0 10.6-2.615 10.6-7.562zM8.221 2.594l.093-.017a11.7 11.7 0 012.147-.16c3.414 0 5.295 2.263 5.295 6.374 0 3.1-1.34 6.413-5.1 6.413H8.221V2.594zm.095 27.056l-.095-.016V15.881h2.549c3.742 0 5.72 2.354 5.72 6.807 0 4.618-2.114 7.161-5.952 7.161a14.02 14.02 0 01-2.222-.199zm26.4-18.816c-5.382 0-9.44 4.486-9.44 10.435C25.273 27.088 29 31 34.558 31a8.053 8.053 0 008.26-6.052l-.043-.026a6.805 6.805 0 01-5.007 1.859c-4.087 0-6.245-2.594-6.416-7.708v-.119l11.527.036a8.287 8.287 0 00-2.259-5.718 7.919 7.919 0 00-5.907-2.437zm2.356 7.478l-5.717.082v-.116c0-3.467.967-6.965 3.129-6.965 1.717 0 2.588 1.814 2.588 5.39v1.609zM45 30.407h7.822a17.3 17.3 0 01-.911-6.066V.005l-7.9 2.212a9.073 9.073 0 011.9 6.259v15.865A16.3 16.3 0 0145 30.407zm10.388 0h7.822a17.3 17.3 0 01-.911-6.066V.005l-7.9 2.212a9.073 9.073 0 011.9 6.259v15.865a16.3 16.3 0 01-.913 6.066zm37.223-18.942h-4.58c.842 1 1.458 3.478.3 6.229l-2.049 5.381-1.759-5.746c-.663-2.308-.646-4.784.024-5.864H75.43c.866.923 1.384 2.005 2.505 5.161l.015.041-2.761 6.985-2.03-6.322c-.817-2.416-.627-4.868.021-5.865h-9.292a18.744 18.744 0 012.87 5.829L71.6 30.682h1.32l5.344-13.122 4.4 13.122h1.312l5.116-13.351a16.675 16.675 0 013.519-5.866zm8.832-.63c-5.382 0-9.44 4.486-9.44 10.435C92 27.088 95.734 31 101.288 31a8.052 8.052 0 008.26-6.052l-.043-.026a6.8 6.8 0 01-5.007 1.859c-4.086 0-6.245-2.594-6.417-7.708v-.119l11.531.039a8.287 8.287 0 00-2.26-5.718 7.917 7.917 0 00-5.909-2.44zm2.355 7.478l-5.717.082v-.117c0-3.467.968-6.965 3.13-6.965 1.717 0 2.587 1.814 2.587 5.39v1.609zM120.7 28.04c.36 1.82 1.866 2.918 4.026 2.918a5.269 5.269 0 005.054-3.493 2.69 2.69 0 01-1.419.415 1.668 1.668 0 01-1.775-1.886V15.877c0-3.3-2.047-5.043-5.921-5.043a11.34 11.34 0 00-8.952 4.267l.067.12a13.146 13.146 0 014.979-1.033c2.717 0 3.825 1.014 3.825 3.5v2.441zM137.018 31a6.554 6.554 0 005.827-2.9 3.884 3.884 0 01-2.153.606c-1.9 0-2.9-1.115-2.9-3.224V12.1h4.6v-.635h-4.6V6.9h-.281l-7.886 5.027v.173h2.165v13.54c.003 3.505 1.81 5.36 5.228 5.36zm20.551-14.412v7.047a20.021 20.021 0 01-.91 6.774h7.823a19.733 19.733 0 01-.911-6.814v-7.4c0-3.2-2.286-5.358-5.689-5.358a7.32 7.32 0 00-6.4 3.726l-.208.337V.005l-7.9 2.212a9.075 9.075 0 011.9 6.259v15.117a19.69 19.69 0 01-.91 6.814h7.823a19.968 19.968 0 01-.912-6.814v-8.029l.023-.031a4.5 4.5 0 013.532-1.975c1.74 0 2.739 1.104 2.739 3.028zm18.405-5.751c-5.382 0-9.441 4.486-9.441 10.435 0 5.818 3.732 9.728 9.286 9.728a8.054 8.054 0 008.26-6.052l-.043-.026a6.806 6.806 0 01-5.007 1.859c-4.087 0-6.246-2.594-6.417-7.708v-.119l11.528.036a8.287 8.287 0 00-2.26-5.718 7.917 7.917 0 00-5.906-2.437zm2.355 7.478l-5.717.082v-.119c0-3.467.968-6.965 3.129-6.965 1.718 0 2.588 1.814 2.588 5.39v1.609zm16.018-4.043c-.343.4-.667.771-.988 1.1l-.192.2v-4.898l-7.748 2.21c1.4 1.733 1.9 3.384 1.9 6.261v4.448a19.686 19.686 0 01-.91 6.814h7.822a20 20 0 01-.911-6.814v-7.484l.028-.032a2.756 2.756 0 011.864-1.181 6.358 6.358 0 014.081 2.323h.033l.674-6.39c-2.6-.087-4.219 1.782-5.653 3.441zM114.91 23.08a3.94 3.94 0 103.87 3.939 3.909 3.909 0 00-3.87-3.939z" fill="#fff" fill-rule="evenodd"/></svg>