<svg xmlns="http://www.w3.org/2000/svg" width="200" height="31" viewBox="0 0 200 31">
  <metadata><?xpacket begin="﻿" id="W5M0MpCehiHzreSzNTczkc9d"?>
<x:xmpmeta xmlns:x="adobe:ns:meta/" x:xmptk="Adobe XMP Core 5.6-c138 79.159824, 2016/09/14-01:09:01        ">
   <rdf:RDF xmlns:rdf="http://www.w3.org/1999/02/22-rdf-syntax-ns#">
      <rdf:Description rdf:about=""/>
   </rdf:RDF>
</x:xmpmeta>
                                                                                                    
                                                                                                    
                                                                                                    
                                                                                                    
                                                                                                    
                                                                                                    
                                                                                                    
                                                                                                    
                                                                                                    
                                                                                                    
                                                                                                    
                                                                                                    
                                                                                                    
                                                                                                    
                                                                                                    
                                                                                                    
                                                                                                    
                                                                                                    
                                                                                                    
                                                                                                    
                           
<?xpacket end="w"?></metadata>
<defs>
    <style>
      .cls-1 {
        fill: #fff;
        fill-rule: evenodd;
      }
    </style>
  </defs>
  <path id="logo-w" class="cls-1" d="M23.42,22.845c0-3.91-2.469-6.43-7.139-7.288l-0.489-.09,0.479-.133c4.822-1.343,5.834-4.577,5.834-7.054,0-4.312-3.28-6.5-9.749-6.5H9.069c-0.822,0-1.719.009-2.626,0.019C5.513,1.81,4.573,1.82,3.693,1.82H0a18.226,18.226,0,0,1,1.524,8.192v12.2A18.238,18.238,0,0,1,0,30.407H12.82C19.755,30.407,23.42,27.792,23.42,22.845ZM8.221,2.594l0.093-.017a11.7,11.7,0,0,1,2.147-.16c3.414,0,5.295,2.263,5.295,6.374,0,3.1-1.34,6.413-5.1,6.413H8.221V2.594ZM8.316,29.65l-0.095-.016V15.881H10.77c3.742,0,5.72,2.354,5.72,6.807,0,4.618-2.114,7.161-5.952,7.161A14.02,14.02,0,0,1,8.316,29.65Zm26.4-18.816c-5.382,0-9.44,4.486-9.44,10.435C25.273,27.088,29,31,34.558,31a8.053,8.053,0,0,0,8.26-6.052l-0.043-.026a6.805,6.805,0,0,1-5.007,1.859c-4.087,0-6.245-2.594-6.416-7.708l0-.119L42.879,18.99a8.287,8.287,0,0,0-2.259-5.718A7.919,7.919,0,0,0,34.713,10.835Zm2.356,7.478-5.717.082V18.278c0-3.467.967-6.965,3.129-6.965,1.717,0,2.588,1.814,2.588,5.39v1.609ZM45,30.407h7.822a17.3,17.3,0,0,1-.911-6.066V0.005l-7.9,2.212a9.073,9.073,0,0,1,1.9,6.259V24.341A16.3,16.3,0,0,1,45,30.407Zm10.388,0h7.822a17.3,17.3,0,0,1-.911-6.066V0.005l-7.9,2.212a9.073,9.073,0,0,1,1.9,6.259V24.341A16.3,16.3,0,0,1,55.386,30.407ZM92.611,11.465h-4.58c0.842,1,1.458,3.478.3,6.229l-2.049,5.381-1.759-5.746c-0.663-2.308-.646-4.784.024-5.864H75.43c0.866,0.923,1.384,2.005,2.505,5.161l0.015,0.041-2.761,6.985-2.03-6.322c-0.817-2.416-.627-4.868.021-5.865H63.888a18.744,18.744,0,0,1,2.87,5.829L71.6,30.682H72.92L78.264,17.56l4.4,13.122h1.312l5.116-13.351A16.675,16.675,0,0,1,92.611,11.465Zm8.832-.63c-5.382,0-9.44,4.486-9.44,10.435C92,27.088,95.734,31,101.288,31a8.052,8.052,0,0,0,8.26-6.052l-0.043-.026a6.8,6.8,0,0,1-5.007,1.859c-4.086,0-6.245-2.594-6.417-7.708l0-.119,11.531,0.039a8.287,8.287,0,0,0-2.26-5.718A7.917,7.917,0,0,0,101.443,10.835Zm2.355,7.478-5.717.082V18.278c0-3.467.968-6.965,3.13-6.965,1.717,0,2.587,1.814,2.587,5.39v1.609ZM120.7,28.04c0.36,1.82,1.866,2.918,4.026,2.918a5.269,5.269,0,0,0,5.054-3.493,2.69,2.69,0,0,1-1.419.415,1.668,1.668,0,0,1-1.775-1.886V15.877c0-3.3-2.047-5.043-5.921-5.043a11.34,11.34,0,0,0-8.952,4.267l0.067,0.12a13.146,13.146,0,0,1,4.979-1.033c2.717,0,3.825,1.014,3.825,3.5v2.441ZM137.018,31a6.554,6.554,0,0,0,5.827-2.9,3.884,3.884,0,0,1-2.153.606c-1.9,0-2.9-1.115-2.9-3.224V12.1h4.6V11.465h-4.6V6.9h-0.281l-7.886,5.027V12.1h2.165V25.64C131.793,29.145,133.6,31,137.018,31Zm20.551-14.412v7.047a20.021,20.021,0,0,1-.91,6.774h7.823a19.733,19.733,0,0,1-.911-6.814v-7.4c0-3.2-2.286-5.358-5.689-5.358a7.32,7.32,0,0,0-6.4,3.726l-0.208.337V0.005l-7.9,2.212a9.075,9.075,0,0,1,1.9,6.259V23.593a19.69,19.69,0,0,1-.91,6.814h7.823a19.968,19.968,0,0,1-.912-6.814V15.564l0.023-.031a4.5,4.5,0,0,1,3.532-1.975C156.57,13.558,157.569,14.662,157.569,16.586Zm18.405-5.751c-5.382,0-9.441,4.486-9.441,10.435,0,5.818,3.732,9.728,9.286,9.728a8.054,8.054,0,0,0,8.26-6.052l-0.043-.026a6.806,6.806,0,0,1-5.007,1.859c-4.087,0-6.246-2.594-6.417-7.708l0-.119L184.14,18.99a8.287,8.287,0,0,0-2.26-5.718A7.917,7.917,0,0,0,175.974,10.835Zm2.355,7.478-5.717.082V18.278c0-3.467.968-6.965,3.129-6.965,1.718,0,2.588,1.814,2.588,5.39v1.609Zm16.018-4.043c-0.343.4-.667,0.771-0.988,1.1l-0.192.2V10.674l-7.748,2.21c1.4,1.733,1.9,3.384,1.9,6.261v4.448a19.686,19.686,0,0,1-.91,6.814h7.822a20,20,0,0,1-.911-6.814V16.109l0.028-.032a2.756,2.756,0,0,1,1.864-1.181,6.358,6.358,0,0,1,4.081,2.323h0.033L200,10.829C197.4,10.742,195.781,12.611,194.347,14.27ZM114.91,23.08a3.94,3.94,0,1,0,3.87,3.939A3.909,3.909,0,0,0,114.91,23.08Z"/>
</svg>
